<svg version="1.1" 
	id="Calque_1" 
	fill="#e5f6ff"
	xmlns="http://www.w3.org/2000/svg" 
	xmlns:xlink="http://www.w3.org/1999/xlink" 
	x="0px" y="0px"
	viewBox="0 0 30 30" 
	style="enable-background:new 0 0 30 30;" 
	xml:space="preserve">
<path d="M3,6C2.4,6,2,6.9,2,8c0,1.1,0.4,2,1,2c0,0,0,0,0,0h24c0.6,0,1-0.9,1-2c0-1.1-0.4-2-1-2c0,0,0,0,0,0H3z M3,13
	c-0.6,0-1,0.9-1,2c0,1.1,0.4,2,1,2c0,0,0,0,0,0h24c0.6,0,1-0.9,1-2s-0.4-2-1-2c0,0,0,0,0,0H3z M3,20c-0.6,0-1,0.9-1,2
	c0,1.1,0.4,2,1,2c0,0,0,0,0,0h24c0.6,0,1-0.9,1-2c0-1.1-0.4-2-1-2c0,0,0,0,0,0H3z"/>
</svg>
