<svg 
fill="#e5f6ff"
id="a" 
xmlns="http://www.w3.org/2000/svg" 
viewBox="0 0 26.03 22">
<path d="M1.01,0C.46-.02,0,.87,0,1.97c0,1.1,.43,2.01,.99,2.03,0,0,.02,0,.03,0H25.01c.55,.02,1.01-.87,1.01-1.97,0-1.1-.43-2.01-.99-2.03,0,0-.02,0-.03,0H1.01Zm0,9C.46,8.98,0,9.87,0,10.97c0,1.1,.43,2.01,.99,2.03,0,0,.02,0,.03,0H25.01c.55,.02,1.01-.87,1.01-1.97,0-1.1-.43-2.01-.99-2.03,0,0-.02,0-.03,0H1.01Zm0,9C.46,17.98,0,18.87,0,19.97c0,1.1,.43,2.01,.99,2.03,0,0,.02,0,.03,0H25.01c.55,.02,1.01-.87,1.01-1.97s-.43-2.01-.99-2.03c0,0-.02,0-.03,0H1.01Z"/>
</svg>