<?xml version="1.0" encoding="UTF-8"?><svg xmlns="http://www.w3.org/2000/svg" viewBox="0 0 1457.67 1048.34"><defs><style>.d{fill:#e5f6ff;}</style></defs><g id="a"/><g id="b"><g id="c"><path class="d" d="M1075.77,1048.34s-44.93-53.67-82.37-101.1c163.49-46.18,225.89-148.51,225.89-148.51-51.17,33.7-99.84,57.42-143.52,73.62-62.4,26.22-122.3,43.68-180.96,53.67-119.81,22.46-229.64,16.23-323.23-1.25-71.14-13.74-132.29-33.7-183.46-53.66-28.71-11.24-59.91-24.96-91.11-42.43-3.74-2.5-7.48-3.75-11.23-6.24-2.49-1.25-3.75-2.49-4.99-3.74-22.46-12.48-34.94-21.22-34.94-21.22,0,0,59.91,99.84,218.4,147.26-37.44,47.43-83.61,103.59-83.61,103.59C104.82,1039.59,0,858.64,0,858.64,0,456.78,179.71,131.05,179.71,131.05,359.42-3.73,530.4,.01,530.4,.01l12.48,14.98C318.24,79.87,214.65,178.48,214.65,178.48c0,0,27.45-14.97,73.62-36.19,133.54-58.66,239.63-74.88,283.31-78.62,7.48-1.25,13.73-2.5,21.22-2.5,83.63-10.89,168.27-11.73,252.1-2.49,118.55,13.73,245.85,48.67,375.64,119.8,0,0-98.59-93.6-310.75-158.49L927.26,.02s170.97-3.75,350.69,131.04c0,0,179.72,325.72,179.72,727.58,0,0-106.09,180.96-381.89,189.69h0ZM495.45,465.52c-71.13,0-127.29,62.4-127.29,138.52s57.4,138.53,127.29,138.53,127.29-62.4,127.29-138.53c1.25-76.12-56.15-138.52-127.29-138.52m455.52,0c-71.14,0-127.3,62.4-127.3,138.52s57.42,138.53,127.3,138.53,127.29-62.4,127.29-138.53-56.15-138.52-127.29-138.52"/></g></g></svg>