<?xml version="1.0" encoding="UTF-8"?><svg xmlns="http://www.w3.org/2000/svg" viewBox="0 0 1738.16 1661.43"><defs><style>.d{fill:#e5f6ff;}</style></defs><g id="a"/><g id="b"><g id="c"><path class="d" d="M394.57,1661.39V540.39H21.96V1661.39H394.57ZM208.34,387.36c129.91,0,210.78-86.08,210.78-193.66C416.7,83.68,338.25,0,210.81,0S0,83.68,0,193.69s80.85,193.66,205.9,193.66h2.44Zm392.47,1274.04h372.58v-625.95c0-33.46,2.43-67.01,12.27-90.9,26.92-66.97,88.23-136.29,191.19-136.29,134.79,0,188.74,102.79,188.74,253.5v599.64h372.57V1018.64c0-344.31-183.79-504.54-428.93-504.54-200.98,0-289.25,112.33-338.29,188.84h2.48v-162.52h-372.59c4.86,105.16-.03,1121.01-.03,1121.01v-.04Z"/></g></g></svg>